<mxfile host="app.diagrams.net" modified="2024-02-11T10:22:19.848Z" agent="Mozilla/5.0 (Windows NT 10.0; Win64; x64; rv:122.0) Gecko/20100101 Firefox/122.0" version="23.1.2" etag="QHv9Q8jky9Dwkmg2P3jq" type="github">
  <diagram name="Страница — 1" id="aZZLtFY4vLrHb70WHzYA">
    <mxGraphModel>
      <root>
        <mxCell id="0" />
        <mxCell id="1" parent="0" />
      </root>
    </mxGraphModel>
  </diagram>
</mxfile>
